<svg width="111" height="111" viewBox="0 0 111 111" fill="none" xmlns="http://www.w3.org/2000/svg">
<g filter="url(#filter0_d_451_23)">
<circle cx="55.5" cy="51.5" r="40" fill="white" stroke="#D5D5D5"/>
<path d="M46.4302 59.3983C47.0237 60.0046 47.9247 59.9142 48.5311 59.3207C49.1375 58.7271 49.0471 57.8261 48.4535 57.2197L40.9308 49.9391L66.2293 50.209C70.5291 50.2548 73.9915 53.792 73.9457 58.0917C73.8998 62.3915 70.3627 65.8539 66.0629 65.8081C65.263 65.7995 64.5555 66.492 64.547 67.292C64.5385 68.0919 65.2299 68.8994 66.0298 68.9079C72.0295 68.9719 76.8815 64.1234 76.9444 58.2237C77.0074 52.3241 72.1599 47.3721 66.2603 47.3091L40.9617 47.0392L48.7434 39.4218C49.3498 38.8283 49.3594 37.9283 48.7658 37.3219C48.469 37.0188 48.0701 36.9145 47.6701 36.9102C47.2701 36.906 46.8691 37.0017 46.5659 37.2985L35.046 48.4762L46.4302 59.3983Z" fill="black"/>
</g>
<defs>
<filter id="filter0_d_451_23" x="0.2" y="0.2" width="110.6" height="110.6" filterUnits="userSpaceOnUse" color-interpolation-filters="sRGB">
<feFlood flood-opacity="0" result="BackgroundImageFix"/>
<feColorMatrix in="SourceAlpha" type="matrix" values="0 0 0 0 0 0 0 0 0 0 0 0 0 0 0 0 0 0 127 0" result="hardAlpha"/>
<feOffset dy="4"/>
<feGaussianBlur stdDeviation="7.4"/>
<feComposite in2="hardAlpha" operator="out"/>
<feColorMatrix type="matrix" values="0 0 0 0 0 0 0 0 0 0 0 0 0 0 0 0 0 0 0.15 0"/>
<feBlend mode="normal" in2="BackgroundImageFix" result="effect1_dropShadow_451_23"/>
<feBlend mode="normal" in="SourceGraphic" in2="effect1_dropShadow_451_23" result="shape"/>
</filter>
</defs>
</svg>
