<svg width="89" height="89" viewBox="0 0 89 89" fill="none" xmlns="http://www.w3.org/2000/svg">
<g filter="url(#filter0_d_865_15)">
<circle cx="44.5" cy="40.5" r="29" fill="white" stroke="#D5D5D5"/>
<path d="M53.9737 31.0264C53.7434 30.7961 53.4311 30.6667 53.1054 30.6667C52.7797 30.6667 52.4673 30.7961 52.237 31.0264L44.5077 38.7557L36.7784 31.0264C36.5467 30.8026 36.2365 30.6788 35.9144 30.6816C35.5924 30.6844 35.2843 30.8136 35.0566 31.0413C34.8289 31.269 34.6997 31.5771 34.6969 31.8991C34.6941 32.2212 34.8179 32.5314 35.0417 32.7631L42.771 40.4924L35.0417 48.2217C34.9243 48.335 34.8308 48.4705 34.7664 48.6204C34.702 48.7702 34.6682 48.9314 34.6667 49.0945C34.6653 49.2576 34.6964 49.4193 34.7581 49.5703C34.8199 49.7212 34.9111 49.8583 35.0264 49.9737C35.1418 50.089 35.2789 50.1802 35.4298 50.242C35.5808 50.3037 35.7425 50.3348 35.9056 50.3334C36.0687 50.332 36.2299 50.2981 36.3797 50.2337C36.5296 50.1693 36.6651 50.0758 36.7784 49.9584L44.5077 42.2291L52.237 49.9584C52.4687 50.1822 52.7789 50.306 53.101 50.3032C53.423 50.3004 53.7311 50.1712 53.9588 49.9435C54.1865 49.7158 54.3157 49.4077 54.3185 49.0857C54.3213 48.7636 54.1975 48.4534 53.9737 48.2217L46.2444 40.4924L53.9737 32.7631C54.204 32.5328 54.3334 32.2204 54.3334 31.8947C54.3334 31.569 54.204 31.2567 53.9737 31.0264Z" fill="black"/>
</g>
<defs>
<filter id="filter0_d_865_15" x="0.2" y="0.2" width="88.6" height="88.6" filterUnits="userSpaceOnUse" color-interpolation-filters="sRGB">
<feFlood flood-opacity="0" result="BackgroundImageFix"/>
<feColorMatrix in="SourceAlpha" type="matrix" values="0 0 0 0 0 0 0 0 0 0 0 0 0 0 0 0 0 0 127 0" result="hardAlpha"/>
<feOffset dy="4"/>
<feGaussianBlur stdDeviation="7.4"/>
<feComposite in2="hardAlpha" operator="out"/>
<feColorMatrix type="matrix" values="0 0 0 0 0 0 0 0 0 0 0 0 0 0 0 0 0 0 0.15 0"/>
<feBlend mode="normal" in2="BackgroundImageFix" result="effect1_dropShadow_865_15"/>
<feBlend mode="normal" in="SourceGraphic" in2="effect1_dropShadow_865_15" result="shape"/>
</filter>
</defs>
</svg>
