<svg width="1088" height="332" viewBox="0 0 1088 332" fill="none" xmlns="http://www.w3.org/2000/svg">
<g filter="url(#filter0_d_538_18)">
<path d="M966.914 312H931.5H36C24.9543 312 16 303.046 16 292V32C16 20.9543 24.9543 12 36 12H1052C1063.05 12 1072 20.9543 1072 32V205.733L1071.74 213.553C1071.35 225.146 1061.14 233.67 1049.57 234.527C1008.21 237.592 994.706 265.647 986.693 296.344C984.321 305.433 976.307 312 966.914 312Z" fill="#5DB3E5"/>
<path d="M966.914 312H931.5H36C24.9543 312 16 303.046 16 292V32C16 20.9543 24.9543 12 36 12H1052C1063.05 12 1072 20.9543 1072 32V205.733L1071.74 213.553C1071.35 225.146 1061.14 233.67 1049.57 234.527C1008.21 237.592 994.706 265.647 986.693 296.344C984.321 305.433 976.307 312 966.914 312Z" stroke="#168ACE"/>
</g>
<circle cx="1044.5" cy="284.5" r="27" fill="#5DB3E5" stroke="#168ACE"/>
<defs>
<filter id="filter0_d_538_18" x="0.7" y="0.7" width="1086.6" height="330.6" filterUnits="userSpaceOnUse" color-interpolation-filters="sRGB">
<feFlood flood-opacity="0" result="BackgroundImageFix"/>
<feColorMatrix in="SourceAlpha" type="matrix" values="0 0 0 0 0 0 0 0 0 0 0 0 0 0 0 0 0 0 127 0" result="hardAlpha"/>
<feOffset dy="4"/>
<feGaussianBlur stdDeviation="7.4"/>
<feComposite in2="hardAlpha" operator="out"/>
<feColorMatrix type="matrix" values="0 0 0 0 0 0 0 0 0 0 0 0 0 0 0 0 0 0 0.15 0"/>
<feBlend mode="normal" in2="BackgroundImageFix" result="effect1_dropShadow_538_18"/>
<feBlend mode="normal" in="SourceGraphic" in2="effect1_dropShadow_538_18" result="shape"/>
</filter>
</defs>
</svg>
