<svg width="151" height="69" viewBox="0 0 151 69" fill="none" xmlns="http://www.w3.org/2000/svg">
<path d="M41.0926 0.712524V53.945H32.7346V50.7279C29.2521 53.3149 25.2721 54.6415 20.7946 54.6415C15.1894 54.6415 10.4134 52.6515 6.43341 48.7047C2.48658 44.7579 0.496582 39.9487 0.496582 34.3435C0.496582 26.3504 4.54291 20.0487 12.6356 15.3722C20.5292 13.0174 27.1957 13.9129 32.7014 17.9924V0.712524H41.0926ZM32.7346 33.3154C32.4029 30.1977 31.1094 27.5775 28.8872 25.488C25.6037 22.4367 21.3584 21.6407 16.1512 23.0669C11.2757 25.8529 8.82141 29.6007 8.82141 34.3435C8.82141 37.6602 9.98224 40.4794 12.3371 42.8342C14.6919 45.189 17.5111 46.3499 20.8277 46.3499C23.9454 46.3499 26.6651 45.3217 28.8872 43.2322C31.1426 41.1427 32.4029 38.5557 32.7346 35.4049V33.3154Z" fill="black"/>
<path d="M56.1171 2.23819C57.1453 3.26636 57.6428 4.49352 57.6428 5.95285C57.6428 7.37902 57.1453 8.60619 56.1171 9.63436C55.089 10.6625 53.8618 11.16 52.4356 11.16C50.9763 11.16 49.7491 10.6625 48.721 9.63436C47.6928 8.60619 47.1953 7.37902 47.1953 5.95285C47.1953 4.49352 47.6928 3.26636 48.721 2.23819C49.7491 1.21003 50.9763 0.712524 52.4356 0.712524C53.8618 0.712524 55.089 1.21003 56.1171 2.23819ZM56.6146 53.945H48.2566V15.9029H56.6146V53.945Z" fill="black"/>
<path d="M98.3711 20.0155C94.4243 16.0686 89.6151 14.0786 84.0099 14.0786C79.5656 14.0786 75.5856 15.3721 72.0699 17.9923V15.3389H63.7451V68.5714H72.0699V50.7278C77.5424 54.8073 84.2421 55.7028 92.1026 53.348C100.228 48.7046 104.275 42.3366 104.275 34.3103C104.308 28.7714 102.318 23.9955 98.3711 20.0155ZM84.0099 46.3498C80.8923 46.3498 78.1726 45.3216 75.9504 43.2321C75.6188 42.9336 75.3534 42.6351 75.0549 42.3366C74.5243 41.7064 73.7614 42.0049 73.7946 43.0331V46.383H72.1031V33.5474V33.3485C72.4348 30.2308 73.7283 27.6106 75.9504 25.5211C78.2058 23.4316 80.8923 22.4035 84.0099 22.4035C87.3266 22.4035 90.1458 23.5643 92.5006 25.9191C95.8836 29.3353 96.8454 33.7133 95.3198 39.0863C92.5338 43.9286 88.7859 46.3498 84.0099 46.3498Z" fill="black"/>
<path d="M145.037 20.0155C141.09 16.0686 136.281 14.0786 130.675 14.0786C126.231 14.0786 122.251 15.3721 118.735 17.9923V15.3389H110.411V68.5714H118.735V50.7278C124.208 54.8073 130.908 55.7028 138.768 53.348C146.894 48.7046 150.94 42.3366 150.94 34.3103C150.973 28.7714 148.983 23.9955 145.037 20.0155ZM130.675 46.3498C127.558 46.3498 124.838 45.3216 122.616 43.2321C122.284 42.9336 122.019 42.6351 121.72 42.3366C121.19 41.7064 120.427 42.0049 120.46 43.0331V46.383H118.769V33.5474V33.3485C119.1 30.2308 120.394 27.6106 122.616 25.5211C124.871 23.4316 127.558 22.4035 130.675 22.4035C133.992 22.4035 136.811 23.5643 139.166 25.9191C142.549 29.3353 143.511 33.7133 141.985 39.0863C139.199 43.9286 135.451 46.3498 130.675 46.3498Z" fill="black"/>
</svg>
