<svg width="79" height="15" viewBox="0 0 79 15" fill="none" xmlns="http://www.w3.org/2000/svg">
<path d="M19.836 3.146H21.211V11H19.836V3.146ZM22.7215 5.313H23.9095V6.149L23.9315 6.171C24.1222 5.85567 24.3715 5.61 24.6795 5.434C24.9875 5.25067 25.3285 5.159 25.7025 5.159C26.3259 5.159 26.8172 5.32033 27.1765 5.643C27.5359 5.96567 27.7155 6.44967 27.7155 7.095V11H26.4615V7.425C26.4469 6.97767 26.3515 6.655 26.1755 6.457C25.9995 6.25167 25.7245 6.149 25.3505 6.149C25.1379 6.149 24.9472 6.18933 24.7785 6.27C24.6099 6.34333 24.4669 6.44967 24.3495 6.589C24.2322 6.721 24.1405 6.87867 24.0745 7.062C24.0085 7.24533 23.9755 7.43967 23.9755 7.645V11H22.7215V5.313ZM29.9839 9.174C30.0206 9.54067 30.1599 9.79733 30.4019 9.944C30.6439 10.0907 30.9336 10.164 31.2709 10.164C31.3883 10.164 31.5203 10.1567 31.6669 10.142C31.8209 10.12 31.9639 10.0833 32.0959 10.032C32.2279 9.98067 32.3343 9.90733 32.4149 9.812C32.5029 9.70933 32.5433 9.57733 32.5359 9.416C32.5286 9.25467 32.4699 9.12267 32.3599 9.02C32.2499 8.91733 32.1069 8.83667 31.9309 8.778C31.7623 8.712 31.5679 8.657 31.3479 8.613C31.1279 8.569 30.9043 8.52133 30.6769 8.47C30.4423 8.41867 30.2149 8.35633 29.9949 8.283C29.7823 8.20967 29.5879 8.11067 29.4119 7.986C29.2433 7.86133 29.1076 7.70367 29.0049 7.513C28.9023 7.315 28.8509 7.073 28.8509 6.787C28.8509 6.479 28.9243 6.22233 29.0709 6.017C29.2249 5.80433 29.4156 5.63567 29.6429 5.511C29.8776 5.379 30.1343 5.28733 30.4129 5.236C30.6989 5.18467 30.9703 5.159 31.2269 5.159C31.5203 5.159 31.7989 5.192 32.0629 5.258C32.3343 5.31667 32.5763 5.41567 32.7889 5.555C33.0089 5.69433 33.1886 5.87767 33.3279 6.105C33.4746 6.325 33.5663 6.59267 33.6029 6.908H32.2939C32.2353 6.60733 32.0959 6.40567 31.8759 6.303C31.6633 6.20033 31.4176 6.149 31.1389 6.149C31.0509 6.149 30.9446 6.15633 30.8199 6.171C30.7026 6.18567 30.5889 6.215 30.4789 6.259C30.3763 6.29567 30.2883 6.35433 30.2149 6.435C30.1416 6.50833 30.1049 6.60733 30.1049 6.732C30.1049 6.886 30.1563 7.01067 30.2589 7.106C30.3689 7.20133 30.5083 7.282 30.6769 7.348C30.8529 7.40667 31.0509 7.458 31.2709 7.502C31.4909 7.546 31.7183 7.59367 31.9529 7.645C32.1803 7.69633 32.4039 7.75867 32.6239 7.832C32.8439 7.90533 33.0383 8.00433 33.2069 8.129C33.3829 8.25367 33.5223 8.41133 33.6249 8.602C33.7349 8.79267 33.7899 9.02733 33.7899 9.306C33.7899 9.64333 33.7129 9.92933 33.5589 10.164C33.4049 10.3987 33.2033 10.5893 32.9539 10.736C32.7119 10.8827 32.4406 10.989 32.1399 11.055C31.8393 11.121 31.5423 11.154 31.2489 11.154C30.8896 11.154 30.5559 11.1137 30.2479 11.033C29.9473 10.9523 29.6833 10.8313 29.4559 10.67C29.2359 10.5013 29.0599 10.296 28.9279 10.054C28.8033 9.80467 28.7373 9.51133 28.7299 9.174H29.9839ZM34.17 5.313H35.116V3.608H36.37V5.313H37.503V6.248H36.37V9.284C36.37 9.416 36.3737 9.52967 36.381 9.625C36.3957 9.72033 36.4214 9.801 36.458 9.867C36.502 9.933 36.5644 9.98433 36.645 10.021C36.7257 10.0503 36.8357 10.065 36.975 10.065C37.063 10.065 37.151 10.065 37.239 10.065C37.327 10.0577 37.415 10.043 37.503 10.021V10.989C37.3637 11.0037 37.228 11.0183 37.096 11.033C36.964 11.0477 36.8284 11.055 36.689 11.055C36.359 11.055 36.0914 11.0257 35.886 10.967C35.688 10.901 35.5304 10.8093 35.413 10.692C35.303 10.5673 35.226 10.4133 35.182 10.23C35.1454 10.0467 35.1234 9.83767 35.116 9.603V6.248H34.17V5.313ZM38.4051 5.313H39.5821V6.413H39.6041C39.6408 6.259 39.7105 6.10867 39.8131 5.962C39.9231 5.81533 40.0515 5.68333 40.1981 5.566C40.3521 5.44133 40.5208 5.34233 40.7041 5.269C40.8875 5.19567 41.0745 5.159 41.2651 5.159C41.4118 5.159 41.5108 5.16267 41.5621 5.17C41.6208 5.17733 41.6795 5.18467 41.7381 5.192V6.402C41.6501 6.38733 41.5585 6.37633 41.4631 6.369C41.3751 6.35433 41.2871 6.347 41.1991 6.347C40.9865 6.347 40.7848 6.391 40.5941 6.479C40.4108 6.55967 40.2495 6.68433 40.1101 6.853C39.9708 7.01433 39.8608 7.216 39.7801 7.458C39.6995 7.7 39.6591 7.97867 39.6591 8.294V11H38.4051V5.313ZM47.2663 11H46.0343V10.208H46.0123C45.8583 10.494 45.6273 10.725 45.3193 10.901C45.0186 11.0697 44.7106 11.154 44.3953 11.154C43.6473 11.154 43.1046 10.9707 42.7673 10.604C42.4373 10.23 42.2723 9.669 42.2723 8.921V5.313H43.5263V8.8C43.5263 9.29867 43.6216 9.65067 43.8123 9.856C44.003 10.0613 44.2706 10.164 44.6153 10.164C44.8793 10.164 45.0993 10.1237 45.2753 10.043C45.4513 9.96233 45.5943 9.856 45.7043 9.724C45.8143 9.58467 45.8913 9.41967 45.9353 9.229C45.9866 9.03833 46.0123 8.833 46.0123 8.613V5.313H47.2663V11ZM52.4277 7.216C52.3764 6.864 52.2334 6.6 51.9987 6.424C51.7714 6.24067 51.4817 6.149 51.1297 6.149C50.9684 6.149 50.796 6.17833 50.6127 6.237C50.4294 6.28833 50.2607 6.391 50.1067 6.545C49.9527 6.69167 49.8244 6.90067 49.7217 7.172C49.619 7.436 49.5677 7.78433 49.5677 8.217C49.5677 8.45167 49.5934 8.68633 49.6447 8.921C49.7034 9.15567 49.7914 9.36467 49.9087 9.548C50.0334 9.73133 50.191 9.88167 50.3817 9.999C50.5724 10.109 50.8034 10.164 51.0747 10.164C51.4414 10.164 51.742 10.0503 51.9767 9.823C52.2187 9.59567 52.369 9.27667 52.4277 8.866H53.6817C53.5644 9.60667 53.282 10.175 52.8347 10.571C52.3947 10.9597 51.808 11.154 51.0747 11.154C50.6274 11.154 50.2314 11.0807 49.8867 10.934C49.5494 10.78 49.2634 10.5747 49.0287 10.318C48.794 10.054 48.6144 9.74233 48.4897 9.383C48.3724 9.02367 48.3137 8.635 48.3137 8.217C48.3137 7.79167 48.3724 7.392 48.4897 7.018C48.607 6.644 48.783 6.32133 49.0177 6.05C49.2524 5.77133 49.542 5.555 49.8867 5.401C50.2387 5.23967 50.6494 5.159 51.1187 5.159C51.4487 5.159 51.7604 5.203 52.0537 5.291C52.3544 5.37167 52.6184 5.49633 52.8457 5.665C53.0804 5.83367 53.271 6.04633 53.4177 6.303C53.5644 6.55967 53.6524 6.864 53.6817 7.216H52.4277ZM54.129 5.313H55.075V3.608H56.329V5.313H57.462V6.248H56.329V9.284C56.329 9.416 56.3327 9.52967 56.34 9.625C56.3547 9.72033 56.3803 9.801 56.417 9.867C56.461 9.933 56.5233 9.98433 56.604 10.021C56.6847 10.0503 56.7947 10.065 56.934 10.065C57.022 10.065 57.11 10.065 57.198 10.065C57.286 10.0577 57.374 10.043 57.462 10.021V10.989C57.3227 11.0037 57.187 11.0183 57.055 11.033C56.923 11.0477 56.7873 11.055 56.648 11.055C56.318 11.055 56.0503 11.0257 55.845 10.967C55.647 10.901 55.4893 10.8093 55.372 10.692C55.262 10.5673 55.185 10.4133 55.141 10.23C55.1043 10.0467 55.0823 9.83767 55.075 9.603V6.248H54.129V5.313ZM58.3971 3.146H59.6511V4.334H58.3971V3.146ZM58.3971 5.313H59.6511V11H58.3971V5.313ZM63.6244 11.154C63.1698 11.154 62.7628 11.0807 62.4034 10.934C62.0514 10.78 61.7508 10.571 61.5014 10.307C61.2594 10.043 61.0724 9.72767 60.9404 9.361C60.8158 8.99433 60.7534 8.591 60.7534 8.151C60.7534 7.71833 60.8158 7.31867 60.9404 6.952C61.0724 6.58533 61.2594 6.27 61.5014 6.006C61.7508 5.742 62.0514 5.53667 62.4034 5.39C62.7628 5.236 63.1698 5.159 63.6244 5.159C64.0791 5.159 64.4824 5.236 64.8344 5.39C65.1938 5.53667 65.4944 5.742 65.7364 6.006C65.9858 6.27 66.1728 6.58533 66.2974 6.952C66.4294 7.31867 66.4954 7.71833 66.4954 8.151C66.4954 8.591 66.4294 8.99433 66.2974 9.361C66.1728 9.72767 65.9858 10.043 65.7364 10.307C65.4944 10.571 65.1938 10.78 64.8344 10.934C64.4824 11.0807 64.0791 11.154 63.6244 11.154ZM63.6244 10.164C63.9031 10.164 64.1451 10.1053 64.3504 9.988C64.5558 9.87067 64.7244 9.71667 64.8564 9.526C64.9884 9.33533 65.0838 9.12267 65.1424 8.888C65.2084 8.646 65.2414 8.40033 65.2414 8.151C65.2414 7.909 65.2084 7.667 65.1424 7.425C65.0838 7.183 64.9884 6.97033 64.8564 6.787C64.7244 6.59633 64.5558 6.44233 64.3504 6.325C64.1451 6.20767 63.9031 6.149 63.6244 6.149C63.3458 6.149 63.1038 6.20767 62.8984 6.325C62.6931 6.44233 62.5244 6.59633 62.3924 6.787C62.2604 6.97033 62.1614 7.183 62.0954 7.425C62.0368 7.667 62.0074 7.909 62.0074 8.151C62.0074 8.40033 62.0368 8.646 62.0954 8.888C62.1614 9.12267 62.2604 9.33533 62.3924 9.526C62.5244 9.71667 62.6931 9.87067 62.8984 9.988C63.1038 10.1053 63.3458 10.164 63.6244 10.164ZM67.5379 5.313H68.7259V6.149L68.7479 6.171C68.9386 5.85567 69.1879 5.61 69.4959 5.434C69.8039 5.25067 70.1449 5.159 70.5189 5.159C71.1423 5.159 71.6336 5.32033 71.9929 5.643C72.3523 5.96567 72.5319 6.44967 72.5319 7.095V11H71.2779V7.425C71.2633 6.97767 71.1679 6.655 70.9919 6.457C70.8159 6.25167 70.5409 6.149 70.1669 6.149C69.9543 6.149 69.7636 6.18933 69.5949 6.27C69.4263 6.34333 69.2833 6.44967 69.1659 6.589C69.0486 6.721 68.9569 6.87867 68.8909 7.062C68.8249 7.24533 68.7919 7.43967 68.7919 7.645V11H67.5379V5.313ZM74.8003 9.174C74.837 9.54067 74.9763 9.79733 75.2183 9.944C75.4603 10.0907 75.75 10.164 76.0873 10.164C76.2047 10.164 76.3367 10.1567 76.4833 10.142C76.6373 10.12 76.7803 10.0833 76.9123 10.032C77.0443 9.98067 77.1507 9.90733 77.2313 9.812C77.3193 9.70933 77.3597 9.57733 77.3523 9.416C77.345 9.25467 77.2863 9.12267 77.1763 9.02C77.0663 8.91733 76.9233 8.83667 76.7473 8.778C76.5787 8.712 76.3843 8.657 76.1643 8.613C75.9443 8.569 75.7207 8.52133 75.4933 8.47C75.2587 8.41867 75.0313 8.35633 74.8113 8.283C74.5987 8.20967 74.4043 8.11067 74.2283 7.986C74.0597 7.86133 73.924 7.70367 73.8213 7.513C73.7187 7.315 73.6673 7.073 73.6673 6.787C73.6673 6.479 73.7407 6.22233 73.8873 6.017C74.0413 5.80433 74.232 5.63567 74.4593 5.511C74.694 5.379 74.9507 5.28733 75.2293 5.236C75.5153 5.18467 75.7867 5.159 76.0433 5.159C76.3367 5.159 76.6153 5.192 76.8793 5.258C77.1507 5.31667 77.3927 5.41567 77.6053 5.555C77.8253 5.69433 78.005 5.87767 78.1443 6.105C78.291 6.325 78.3827 6.59267 78.4193 6.908H77.1103C77.0517 6.60733 76.9123 6.40567 76.6923 6.303C76.4797 6.20033 76.234 6.149 75.9553 6.149C75.8673 6.149 75.761 6.15633 75.6363 6.171C75.519 6.18567 75.4053 6.215 75.2953 6.259C75.1927 6.29567 75.1047 6.35433 75.0313 6.435C74.958 6.50833 74.9213 6.60733 74.9213 6.732C74.9213 6.886 74.9727 7.01067 75.0753 7.106C75.1853 7.20133 75.3247 7.282 75.4933 7.348C75.6693 7.40667 75.8673 7.458 76.0873 7.502C76.3073 7.546 76.5347 7.59367 76.7693 7.645C76.9967 7.69633 77.2203 7.75867 77.4403 7.832C77.6603 7.90533 77.8547 8.00433 78.0233 8.129C78.1993 8.25367 78.3387 8.41133 78.4413 8.602C78.5513 8.79267 78.6063 9.02733 78.6063 9.306C78.6063 9.64333 78.5293 9.92933 78.3753 10.164C78.2213 10.3987 78.0197 10.5893 77.7703 10.736C77.5283 10.8827 77.257 10.989 76.9563 11.055C76.6557 11.121 76.3587 11.154 76.0653 11.154C75.706 11.154 75.3723 11.1137 75.0643 11.033C74.7637 10.9523 74.4997 10.8313 74.2723 10.67C74.0523 10.5013 73.8763 10.296 73.7443 10.054C73.6197 9.80467 73.5537 9.51133 73.5463 9.174H74.8003Z" fill="white"/>
<path d="M6.36522 4.5529C7.29527 4.45081 7.96646 3.61409 7.86436 2.68404C7.76227 1.75399 6.92556 1.0828 5.99551 1.1849C5.06546 1.28699 4.39427 2.12371 4.49637 3.05376C4.59846 3.98381 5.43518 4.655 6.36522 4.5529Z" fill="white"/>
<path d="M11.9151 12.9321C11.9145 12.9154 11.9133 12.8983 11.912 12.8812C11.9103 12.8602 11.9083 12.839 11.9054 12.818C11.9028 12.7985 11.8997 12.7807 11.8965 12.7628C11.893 12.7438 11.8892 12.7249 11.8847 12.7063C11.8801 12.6868 11.8751 12.6676 11.8696 12.6486C11.8648 12.6325 11.8596 12.6153 11.8538 12.5986C11.8469 12.5781 11.8396 12.5584 11.8318 12.5391C11.8261 12.5247 11.8195 12.5094 11.8126 12.4943C11.8036 12.4742 11.7944 12.4552 11.7847 12.4363C11.7769 12.4212 11.7693 12.4073 11.7612 12.3934C11.7503 12.3744 11.7397 12.3568 11.7286 12.3396C11.7191 12.325 11.7094 12.3104 11.6992 12.2962C11.6934 12.2881 11.6872 12.2801 11.6812 12.2721C11.5792 12.1953 11.0782 11.8437 10.2684 11.6871L8.12203 11.2721H4.23872L2.09234 11.6871L2.09235 11.6871C1.27479 11.8452 0.780811 12.1949 0.680039 12.2715C0.673833 12.2798 0.667549 12.2878 0.661471 12.2963C0.651389 12.3104 0.641638 12.325 0.632047 12.3398C0.621064 12.3568 0.610414 12.3744 0.600255 12.3922C0.591483 12.4073 0.583858 12.4212 0.576489 12.4357C0.566327 12.4552 0.557147 12.4742 0.548455 12.4935C0.541251 12.5094 0.534692 12.5247 0.528467 12.5402C0.521165 12.5584 0.513873 12.5781 0.507157 12.5978C0.501177 12.6153 0.495931 12.6325 0.490928 12.6495C0.485681 12.6674 0.4806 12.6868 0.476098 12.7059C0.471508 12.7251 0.46774 12.744 0.464294 12.763C0.460938 12.7808 0.457981 12.7984 0.455602 12.8164C0.452412 12.8392 0.450443 12.8603 0.44872 12.8815C0.447408 12.8983 0.446264 12.9154 0.445608 12.9329C0.444786 12.9546 0.444952 12.9772 0.445362 13C0.445442 13.0037 0.445285 13.0237 0.445197 13.0275L0.447496 13.0541C0.448808 13.0728 0.450931 13.0932 0.453479 13.1141C0.456012 13.1359 0.458802 13.1567 0.462325 13.1772C0.463061 13.1814 0.465441 13.1983 0.465929 13.2027L0.472319 13.2268C0.477411 13.2499 0.482646 13.2722 0.488794 13.2942C0.493472 13.3109 0.498387 13.3263 0.503466 13.3419C0.510347 13.3627 0.517561 13.3835 0.525509 13.4037C0.532479 13.4215 0.539037 13.4369 0.545918 13.4525C0.554357 13.4715 0.563049 13.4899 0.572141 13.5079C0.580748 13.5248 0.589437 13.5409 0.598452 13.5564C0.608449 13.5741 0.617952 13.5899 0.627788 13.6054C0.638771 13.6228 0.649754 13.6389 0.661138 13.6549C0.670974 13.6689 0.681546 13.6831 0.692607 13.6972C0.704902 13.7128 0.717606 13.7284 0.730803 13.7436C0.74293 13.7577 0.755223 13.7711 0.767841 13.7846C0.78079 13.7982 0.794317 13.8116 0.808168 13.8249C0.821519 13.8377 0.835703 13.8505 0.85021 13.8629C0.863484 13.8744 0.877001 13.8859 0.890851 13.8969C0.907246 13.9096 0.923798 13.9221 0.940764 13.9341C0.954369 13.9437 0.967563 13.9528 0.981002 13.9614C0.999766 13.9734 1.01829 13.9847 1.03722 13.9957C1.05123 14.0037 1.06484 14.0109 1.0786 14.0182C1.09745 14.028 1.11737 14.0377 1.13753 14.0467C1.15212 14.0532 1.1663 14.0593 1.18047 14.065C1.20243 14.0739 1.22243 14.0813 1.24267 14.0881C1.25841 14.0934 1.27529 14.0986 1.29225 14.1037C1.31037 14.109 1.3302 14.114 1.35028 14.1189C1.36987 14.1235 1.38896 14.1271 1.40814 14.1309C1.42255 14.1335 1.44092 14.1366 1.4596 14.1391C1.48172 14.1421 1.5032 14.1442 1.52467 14.146C1.54123 14.1473 1.5586 14.1485 1.57622 14.1491C1.59728 14.1498 1.62064 14.1498 1.64407 14.1493C1.64752 14.1493 1.66687 14.1494 1.67013 14.1494L6.15144 13.6308C6.17062 13.6285 6.19013 13.6285 6.2093 13.6308L10.7045 14.1509C10.7044 14.1506 10.7103 14.1504 10.7186 14.1504C10.7279 14.1504 10.7427 14.1507 10.7537 14.1514C10.7808 14.1511 10.818 14.1488 10.8548 14.1453C10.8572 14.145 10.8768 14.1422 10.8792 14.1419C10.9071 14.1388 10.9338 14.1352 10.9603 14.1301L10.9848 14.1247C11.0206 14.1165 11.0421 14.1114 11.0632 14.1055C11.0781 14.1013 11.0925 14.0965 11.107 14.0917C11.1263 14.0853 11.1448 14.079 11.1629 14.0721C11.1771 14.0665 11.1926 14.0603 11.2079 14.0536C11.2262 14.0455 11.2434 14.0375 11.2603 14.0291C11.274 14.0224 11.2889 14.0149 11.3036 14.007C11.3187 13.9986 11.3351 13.989 11.3514 13.9788C11.3671 13.9695 11.3796 13.9621 11.3917 13.9539C11.4094 13.9421 11.4252 13.9303 11.4411 13.9185L11.4756 13.8929C11.4968 13.876 11.5163 13.8587 11.5355 13.841C11.5373 13.8393 11.5488 13.829 11.5506 13.8275C11.6063 13.7746 11.6536 13.7203 11.6952 13.6628L11.7053 13.6474C11.7212 13.6248 11.7374 13.6004 11.7525 13.575L11.7607 13.5599C11.7613 13.5589 11.7691 13.5445 11.7697 13.5433C11.7806 13.5235 11.7916 13.5037 11.8015 13.4828L11.8144 13.4537C11.8146 13.4532 11.8208 13.4386 11.8211 13.4383C11.829 13.4194 11.8363 13.4025 11.8428 13.385C11.8488 13.3689 11.8541 13.352 11.8595 13.3352C11.8655 13.3165 11.8708 13.2993 11.8756 13.2817C11.8802 13.2647 11.8843 13.2463 11.8884 13.2276C11.8892 13.2244 11.8938 13.2053 11.8946 13.2021C11.8952 13.1976 11.8978 13.1799 11.8987 13.1755C11.9021 13.1549 11.9051 13.1336 11.9077 13.1118C11.91 13.0921 11.9119 13.0728 11.9133 13.0536C11.9135 13.0493 11.9152 13.0319 11.9157 13.0277L11.9154 13.0001C11.9158 12.9772 11.916 12.9546 11.9151 12.9321Z" fill="white"/>
<path d="M11.925 10.753C11.8929 10.7475 11.8623 10.7357 11.8347 10.7185C11.5032 10.5106 10.6955 9.7429 10.2624 9.2838C10.243 9.26332 10.2273 9.23987 10.2158 9.21415C10.1213 9.00386 9.94762 8.45133 9.74708 7.80473C9.03918 5.52253 8.80815 4.86462 8.20187 4.86462H6.23436C6.22428 4.86462 6.21437 4.8656 6.20445 4.86626C6.19208 4.8674 6.17438 4.86757 6.162 4.86675C6.14635 4.8656 6.13643 4.86462 6.12635 4.86462H4.15885C3.55257 4.86462 3.32154 5.52253 2.61364 7.80473C2.4131 8.45133 2.23945 9.00386 2.14487 9.21415C2.1334 9.23987 2.11766 9.26332 2.09832 9.2838C1.6652 9.7429 0.857486 10.5106 0.525984 10.7185C0.498449 10.7357 0.467801 10.7475 0.435756 10.753C0.223338 10.7903 0.056897 10.9505 0.0117427 11.1615C-0.0490729 11.4454 0.132374 11.726 0.416256 11.7868C0.434737 11.7908 0.455586 11.7946 0.47807 11.7979C0.655366 11.6783 0.99704 11.4782 1.48402 11.3235C1.48528 11.3225 1.48592 11.321 1.4872 11.32C1.88172 11.0082 2.36491 10.5452 2.92325 9.94384C2.94513 9.92024 3.15387 9.65669 3.77645 7.66755C3.81104 7.55708 3.91651 7.48593 4.03223 7.49151C4.14786 7.49856 4.24366 7.58362 4.2644 7.69771C4.38774 8.37414 4.40781 9.3533 4.42257 10.0683C4.42803 10.3343 4.43341 10.5888 4.44331 10.7686H7.91741C7.9273 10.5888 7.93269 10.3343 7.93814 10.0683C7.9529 9.3533 7.97298 8.37414 8.09632 7.69771C8.11705 7.58362 8.21286 7.49856 8.32849 7.49151C8.44428 7.48545 8.54967 7.55708 8.58426 7.66755C9.2071 9.6575 9.41575 9.92041 9.43754 9.94384C9.99523 10.5446 10.4783 11.0076 10.8735 11.32C10.8748 11.321 10.8754 11.3225 10.8767 11.3235C11.3637 11.4782 11.7054 11.6784 11.8827 11.7979C11.9051 11.7947 11.9258 11.7909 11.9441 11.787C12.2283 11.726 12.4098 11.4454 12.349 11.1615C12.3038 10.9505 12.1374 10.7903 11.925 10.753Z" fill="white"/>
</svg>
