<svg width="13" height="14" viewBox="0 0 13 14" fill="none" xmlns="http://www.w3.org/2000/svg">
<path d="M6.36523 3.55278C7.29527 3.45069 7.96646 2.61397 7.86437 1.68392C7.76228 0.753873 6.92556 0.0826809 5.99551 0.184774C5.06547 0.286866 4.39428 1.12358 4.49637 2.05363C4.59846 2.98368 5.43518 3.65487 6.36523 3.55278Z" fill="#888888"/>
<path d="M11.9151 11.932C11.9145 11.9153 11.9133 11.8982 11.912 11.881C11.9103 11.86 11.9083 11.8389 11.9054 11.8179C11.9028 11.7984 11.8997 11.7806 11.8965 11.7627C11.893 11.7437 11.8892 11.7248 11.8847 11.7061C11.8801 11.6866 11.8751 11.6675 11.8696 11.6484C11.8648 11.6324 11.8596 11.6152 11.8538 11.5985C11.8469 11.578 11.8396 11.5583 11.8318 11.539C11.8261 11.5245 11.8195 11.5093 11.8126 11.4942C11.8036 11.4741 11.7944 11.455 11.7847 11.4362C11.7769 11.4211 11.7693 11.4072 11.7612 11.3933C11.7503 11.3742 11.7397 11.3567 11.7286 11.3395C11.7191 11.3249 11.7094 11.3103 11.6992 11.296C11.6934 11.288 11.6872 11.28 11.6812 11.2719C11.5792 11.1952 11.0782 10.8436 10.2684 10.687L8.12203 10.272H4.23872L2.09234 10.6869L2.09235 10.687C1.27479 10.8451 0.780811 11.1947 0.680039 11.2714C0.673833 11.2797 0.667549 11.2877 0.661471 11.2962C0.651389 11.3103 0.641638 11.3249 0.632047 11.3396C0.621064 11.3567 0.610414 11.3742 0.600255 11.3921C0.591483 11.4072 0.583858 11.4211 0.576489 11.4355C0.566327 11.455 0.557147 11.4741 0.548455 11.4934C0.541251 11.5093 0.534692 11.5245 0.528467 11.5401C0.521165 11.5583 0.513873 11.578 0.507157 11.5976C0.501177 11.6152 0.495931 11.6324 0.490928 11.6494C0.485681 11.6673 0.4806 11.6866 0.476098 11.7058C0.471508 11.725 0.46774 11.7438 0.464294 11.7628C0.460938 11.7807 0.457981 11.7983 0.455602 11.8163C0.452412 11.8391 0.450443 11.8602 0.44872 11.8814C0.447408 11.8982 0.446264 11.9153 0.445608 11.9328C0.444786 11.9544 0.444952 11.9771 0.445362 11.9999C0.445442 12.0036 0.445285 12.0236 0.445197 12.0274L0.447496 12.0539C0.448808 12.0726 0.450931 12.0931 0.453479 12.1139C0.456012 12.1357 0.458802 12.1566 0.462325 12.177C0.463061 12.1813 0.465441 12.1982 0.465929 12.2026L0.472319 12.2267C0.477411 12.2498 0.482646 12.2721 0.488794 12.2941C0.493472 12.3108 0.498387 12.3262 0.503466 12.3418C0.510347 12.3626 0.517561 12.3834 0.525509 12.4035C0.532479 12.4214 0.539037 12.4368 0.545918 12.4524C0.554357 12.4714 0.563049 12.4898 0.572141 12.5078C0.580748 12.5247 0.589437 12.5407 0.598452 12.5563C0.608449 12.574 0.617952 12.5897 0.627788 12.6053C0.638771 12.6227 0.649754 12.6387 0.661138 12.6548C0.670974 12.6687 0.681546 12.683 0.692607 12.6971C0.704902 12.7127 0.717606 12.7282 0.730803 12.7435C0.74293 12.7576 0.755223 12.771 0.767841 12.7845C0.78079 12.7981 0.794317 12.8115 0.808168 12.8248C0.821519 12.8376 0.835703 12.8504 0.85021 12.8628C0.863484 12.8743 0.877001 12.8858 0.890851 12.8967C0.907246 12.9095 0.923798 12.922 0.940764 12.9339C0.954369 12.9436 0.967563 12.9526 0.981002 12.9613C0.999766 12.9733 1.01829 12.9846 1.03722 12.9956C1.05123 13.0036 1.06484 13.0108 1.0786 13.018C1.09745 13.0279 1.11737 13.0375 1.13753 13.0466C1.15212 13.0531 1.1663 13.0592 1.18047 13.0649C1.20243 13.0738 1.22243 13.0811 1.24267 13.088C1.25841 13.0933 1.27529 13.0985 1.29225 13.1036C1.31037 13.1088 1.3302 13.1139 1.35028 13.1188C1.36987 13.1234 1.38896 13.127 1.40814 13.1308C1.42255 13.1334 1.44092 13.1365 1.4596 13.139C1.48172 13.1419 1.5032 13.1441 1.52467 13.1459C1.54123 13.1472 1.5586 13.1483 1.57622 13.149C1.59728 13.1496 1.62064 13.1496 1.64407 13.1492C1.64752 13.1492 1.66687 13.1493 1.67013 13.1493L6.15144 12.6307C6.17062 12.6284 6.19013 12.6284 6.2093 12.6307L10.7045 13.1508C10.7044 13.1505 10.7103 13.1503 10.7186 13.1503C10.7279 13.1503 10.7427 13.1506 10.7537 13.1513C10.7808 13.151 10.818 13.1487 10.8548 13.1452C10.8572 13.1449 10.8768 13.1421 10.8792 13.1418C10.9071 13.1387 10.9338 13.1351 10.9603 13.13L10.9848 13.1246C11.0206 13.1164 11.0421 13.1113 11.0632 13.1054C11.0781 13.1011 11.0925 13.0964 11.107 13.0916C11.1263 13.0852 11.1448 13.0788 11.1629 13.072C11.1771 13.0664 11.1926 13.0602 11.2079 13.0534C11.2262 13.0454 11.2434 13.0374 11.2603 13.029C11.274 13.0223 11.2889 13.0147 11.3036 13.0069C11.3187 12.9985 11.3351 12.9889 11.3514 12.9787C11.3671 12.9694 11.3796 12.962 11.3917 12.9538C11.4094 12.942 11.4252 12.9302 11.4411 12.9184L11.4756 12.8928C11.4968 12.8759 11.5163 12.8585 11.5355 12.8408C11.5373 12.8392 11.5488 12.8289 11.5506 12.8274C11.6063 12.7745 11.6536 12.7202 11.6952 12.6627L11.7053 12.6473C11.7212 12.6247 11.7374 12.6002 11.7525 12.5748L11.7607 12.5597C11.7613 12.5588 11.7691 12.5443 11.7697 12.5432C11.7806 12.5234 11.7916 12.5035 11.8015 12.4827L11.8144 12.4535C11.8146 12.4531 11.8208 12.4385 11.8211 12.4381C11.829 12.4193 11.8363 12.4024 11.8428 12.3849C11.8488 12.3688 11.8541 12.3519 11.8595 12.335C11.8655 12.3163 11.8708 12.2991 11.8756 12.2816C11.8802 12.2646 11.8843 12.2462 11.8884 12.2275C11.8892 12.2242 11.8938 12.2052 11.8946 12.202C11.8952 12.1975 11.8978 12.1798 11.8987 12.1754C11.9021 12.1547 11.9051 12.1334 11.9077 12.1116C11.91 12.092 11.9119 12.0726 11.9133 12.0535C11.9135 12.0492 11.9152 12.0318 11.9157 12.0275L11.9154 12C11.9158 11.9771 11.916 11.9544 11.9151 11.932Z" fill="#888888"/>
<path d="M11.925 9.75317C11.8929 9.74759 11.8623 9.7358 11.8347 9.71858C11.5032 9.51075 10.6955 8.74302 10.2624 8.28393C10.243 8.26344 10.2273 8.23999 10.2158 8.21427C10.1213 8.00398 9.94762 7.45145 9.74708 6.80485C9.03918 4.52265 8.80815 3.86475 8.20187 3.86475H6.23436C6.22428 3.86475 6.21437 3.86572 6.20445 3.86638C6.19208 3.86752 6.17438 3.86769 6.162 3.86687C6.14635 3.86572 6.13643 3.86475 6.12635 3.86475H4.15885C3.55257 3.86475 3.32154 4.52265 2.61364 6.80485C2.4131 7.45145 2.23945 8.00398 2.14487 8.21427C2.1334 8.23999 2.11766 8.26344 2.09832 8.28393C1.6652 8.74302 0.857486 9.51075 0.525984 9.71858C0.498449 9.7358 0.467801 9.74759 0.435756 9.75317C0.223338 9.79038 0.056897 9.95067 0.0117427 10.1616C-0.0490729 10.4455 0.132374 10.7261 0.416256 10.7869C0.434737 10.7909 0.455586 10.7948 0.47807 10.798C0.655366 10.6785 0.99704 10.4783 1.48402 10.3236C1.48528 10.3226 1.48592 10.3211 1.4872 10.3201C1.88172 10.0084 2.36491 9.54533 2.92325 8.94396C2.94513 8.92036 3.15387 8.65681 3.77645 6.66767C3.81104 6.5572 3.91651 6.48605 4.03223 6.49163C4.14786 6.49868 4.24366 6.58374 4.2644 6.69783C4.38774 7.37426 4.40781 8.35342 4.42257 9.06838C4.42803 9.33447 4.43341 9.58895 4.44331 9.76873H7.91741C7.9273 9.58895 7.93269 9.33447 7.93814 9.06838C7.9529 8.35342 7.97298 7.37426 8.09632 6.69783C8.11705 6.58374 8.21286 6.49868 8.32849 6.49163C8.44428 6.48557 8.54967 6.5572 8.58426 6.66767C9.2071 8.65763 9.41575 8.92053 9.43754 8.94396C9.99523 9.54468 10.4783 10.0077 10.8735 10.3201C10.8748 10.3211 10.8754 10.3226 10.8767 10.3237C11.3637 10.4783 11.7054 10.6785 11.8827 10.798C11.9051 10.7948 11.9258 10.791 11.9441 10.7871C12.2283 10.7261 12.4098 10.4455 12.349 10.1616C12.3038 9.95067 12.1374 9.79038 11.925 9.75317Z" fill="#888888"/>
</svg>
