<svg width="365" height="447" viewBox="0 0 365 447" fill="none" xmlns="http://www.w3.org/2000/svg">
<g filter="url(#filter0_d_432_148)">
<path d="M16 113V389.5C16 410.487 33.0132 427.5 54 427.5H311C331.987 427.5 349 410.487 349 389.5V50C349 29.0132 331.987 12 311 12H195.5C178.103 12 164 26.103 164 43.5C164 60.897 149.897 75 132.5 75H54C33.0132 75 16 92.0132 16 113Z" fill="#F5F5F5"/>
<path d="M16 113V389.5C16 410.487 33.0132 427.5 54 427.5H311C331.987 427.5 349 410.487 349 389.5V50C349 29.0132 331.987 12 311 12H195.5C178.103 12 164 26.103 164 43.5C164 60.897 149.897 75 132.5 75H54C33.0132 75 16 92.0132 16 113Z" stroke="#168ACE"/>
</g>
<defs>
<filter id="filter0_d_432_148" x="0.7" y="0.7" width="363.6" height="446.1" filterUnits="userSpaceOnUse" color-interpolation-filters="sRGB">
<feFlood flood-opacity="0" result="BackgroundImageFix"/>
<feColorMatrix in="SourceAlpha" type="matrix" values="0 0 0 0 0 0 0 0 0 0 0 0 0 0 0 0 0 0 127 0" result="hardAlpha"/>
<feOffset dy="4"/>
<feGaussianBlur stdDeviation="7.4"/>
<feComposite in2="hardAlpha" operator="out"/>
<feColorMatrix type="matrix" values="0 0 0 0 0 0 0 0 0 0 0 0 0 0 0 0 0 0 0.15 0"/>
<feBlend mode="normal" in2="BackgroundImageFix" result="effect1_dropShadow_432_148"/>
<feBlend mode="normal" in="SourceGraphic" in2="effect1_dropShadow_432_148" result="shape"/>
</filter>
</defs>
</svg>
