<svg width="1090" height="96" viewBox="0 0 1090 96" fill="none" xmlns="http://www.w3.org/2000/svg">
<g filter="url(#filter0_d_427_109)">
<path d="M15 31C15 19.9543 23.9543 11 35 11H1055C1066.05 11 1075 19.9543 1075 31V57C1075 68.0457 1066.05 77 1055 77H35C23.9543 77 15 68.0457 15 57V31Z" fill="#FAE3E4"/>
<path d="M15.5 31C15.5 20.2304 24.2304 11.5 35 11.5H1055C1065.77 11.5 1074.5 20.2304 1074.5 31V57C1074.5 67.7696 1065.77 76.5 1055 76.5H35C24.2304 76.5 15.5 67.7696 15.5 57V31Z" stroke="#D6C4BE"/>
</g>
<defs>
<filter id="filter0_d_427_109" x="0.2" y="0.2" width="1089.6" height="95.6" filterUnits="userSpaceOnUse" color-interpolation-filters="sRGB">
<feFlood flood-opacity="0" result="BackgroundImageFix"/>
<feColorMatrix in="SourceAlpha" type="matrix" values="0 0 0 0 0 0 0 0 0 0 0 0 0 0 0 0 0 0 127 0" result="hardAlpha"/>
<feOffset dy="4"/>
<feGaussianBlur stdDeviation="7.4"/>
<feComposite in2="hardAlpha" operator="out"/>
<feColorMatrix type="matrix" values="0 0 0 0 0 0 0 0 0 0 0 0 0 0 0 0 0 0 0.15 0"/>
<feBlend mode="normal" in2="BackgroundImageFix" result="effect1_dropShadow_427_109"/>
<feBlend mode="normal" in="SourceGraphic" in2="effect1_dropShadow_427_109" result="shape"/>
</filter>
</defs>
</svg>
