<svg width="89" height="89" viewBox="0 0 89 89" fill="none" xmlns="http://www.w3.org/2000/svg">
<g filter="url(#filter0_d_865_22)">
<circle cx="44.5" cy="40.5" r="29" fill="white" stroke="#D5D5D5"/>
<path d="M37.4932 45.5649C37.9278 46.0089 38.5876 45.9427 39.0316 45.5081C39.4757 45.0734 39.4095 44.4137 38.9748 43.9696L33.4662 38.6383L51.9914 38.8359C55.1399 38.8695 57.6754 41.4596 57.6418 44.6081C57.6082 47.7567 55.0181 50.2921 51.8695 50.2585C51.2837 50.2523 50.7657 50.7594 50.7595 51.3452C50.7532 51.9309 51.2595 52.5222 51.8453 52.5284C56.2386 52.5753 59.7916 49.0249 59.8377 44.7048C59.8837 40.3847 56.3341 36.7585 52.014 36.7125L33.4888 36.5148L39.1871 30.9369C39.6311 30.5022 39.6381 29.8432 39.2035 29.3992C38.9862 29.1772 38.6941 29.1009 38.4012 29.0977C38.1083 29.0946 37.8146 29.1647 37.5926 29.382L29.157 37.5671L37.4932 45.5649Z" fill="black"/>
</g>
<defs>
<filter id="filter0_d_865_22" x="0.2" y="0.2" width="88.6" height="88.6" filterUnits="userSpaceOnUse" color-interpolation-filters="sRGB">
<feFlood flood-opacity="0" result="BackgroundImageFix"/>
<feColorMatrix in="SourceAlpha" type="matrix" values="0 0 0 0 0 0 0 0 0 0 0 0 0 0 0 0 0 0 127 0" result="hardAlpha"/>
<feOffset dy="4"/>
<feGaussianBlur stdDeviation="7.4"/>
<feComposite in2="hardAlpha" operator="out"/>
<feColorMatrix type="matrix" values="0 0 0 0 0 0 0 0 0 0 0 0 0 0 0 0 0 0 0.15 0"/>
<feBlend mode="normal" in2="BackgroundImageFix" result="effect1_dropShadow_865_22"/>
<feBlend mode="normal" in="SourceGraphic" in2="effect1_dropShadow_865_22" result="shape"/>
</filter>
</defs>
</svg>
