<svg width="17" height="14" viewBox="0 0 17 14" fill="none" xmlns="http://www.w3.org/2000/svg">
<path d="M16.0421 9.50635H0.594233C0.433226 9.50635 0.293983 9.56526 0.17639 9.68274C0.0587966 9.80022 0 9.93969 0 10.1006V12.4771C0 12.6378 0.0587966 12.7773 0.17639 12.8948C0.294097 13.0123 0.43334 13.0713 0.594233 13.0713H16.0421C16.203 13.0713 16.3424 13.0123 16.46 12.8948C16.5776 12.7773 16.6364 12.6378 16.6364 12.4771V10.1006C16.6364 9.93969 16.5776 9.80022 16.46 9.68274C16.3424 9.56526 16.203 9.50635 16.0421 9.50635ZM15.4481 11.8831H9.5067V10.6947H15.4482V11.8831H15.4481Z" fill="#888888"/>
<path d="M16.0421 4.75317H0.594233C0.433226 4.75317 0.293983 4.81197 0.17639 4.92956C0.0587966 5.04716 0 5.1864 0 5.34729V7.72377C0 7.88466 0.0587966 8.02402 0.17639 8.1415C0.294097 8.25909 0.43334 8.318 0.594233 8.318H16.0421C16.203 8.318 16.3424 8.25909 16.46 8.1415C16.5776 8.02402 16.6364 7.88466 16.6364 7.72377V5.34729C16.6364 5.1864 16.5776 5.04716 16.46 4.92956C16.3424 4.81197 16.203 4.75317 16.0421 4.75317ZM15.4479 7.12976H5.94164V5.94153H15.4479V7.12976Z" fill="#888888"/>
<path d="M16.46 0.17639C16.3424 0.0589106 16.203 0 16.0421 0H0.594233C0.433226 0 0.293983 0.0589106 0.17639 0.17639C0.0587966 0.293983 0 0.43334 0 0.594233V2.97071C0 3.13172 0.0587966 3.27096 0.17639 3.38855C0.294097 3.50614 0.43334 3.56494 0.594233 3.56494H16.0421C16.203 3.56494 16.3424 3.50614 16.46 3.38855C16.5776 3.27096 16.6364 3.13172 16.6364 2.97071V0.594233C16.6364 0.43334 16.5776 0.294097 16.46 0.17639ZM15.4479 2.3767H11.8831V1.18835H15.4479V2.3767Z" fill="#888888"/>
</svg>
