<svg width="59" height="16" viewBox="0 0 59 16" fill="none" xmlns="http://www.w3.org/2000/svg">
<path d="M16.0421 11.5065H0.594233C0.433226 11.5065 0.293983 11.5654 0.17639 11.6829C0.0587966 11.8003 0 11.9398 0 12.1007V14.4772C0 14.638 0.0587966 14.7774 0.17639 14.8949C0.294097 15.0124 0.43334 15.0714 0.594233 15.0714H16.0421C16.203 15.0714 16.3424 15.0124 16.46 14.8949C16.5776 14.7774 16.6364 14.638 16.6364 14.4772V12.1007C16.6364 11.9398 16.5776 11.8003 16.46 11.6829C16.3424 11.5654 16.203 11.5065 16.0421 11.5065ZM15.4481 13.8832H9.5067V12.6948H15.4482V13.8832H15.4481Z" fill="#888888"/>
<path d="M16.0421 6.7533H0.594233C0.433226 6.7533 0.293983 6.81209 0.17639 6.92969C0.0587966 7.04728 0 7.18652 0 7.34741V9.72389C0 9.88478 0.0587966 10.0241 0.17639 10.1416C0.294097 10.2592 0.43334 10.3181 0.594233 10.3181H16.0421C16.203 10.3181 16.3424 10.2592 16.46 10.1416C16.5776 10.0241 16.6364 9.88478 16.6364 9.72389V7.34741C16.6364 7.18652 16.5776 7.04728 16.46 6.92969C16.3424 6.81209 16.203 6.7533 16.0421 6.7533ZM15.4479 9.12989H5.94164V7.94165H15.4479V9.12989Z" fill="#888888"/>
<path d="M16.46 2.17639C16.3424 2.05891 16.203 2 16.0421 2H0.594233C0.433226 2 0.293983 2.05891 0.17639 2.17639C0.0587966 2.29398 0 2.43334 0 2.59423V4.97071C0 5.13172 0.0587966 5.27096 0.17639 5.38855C0.294097 5.50614 0.43334 5.56494 0.594233 5.56494H16.0421C16.203 5.56494 16.3424 5.50614 16.46 5.38855C16.5776 5.27096 16.6364 5.13172 16.6364 4.97071V2.59423C16.6364 2.43334 16.5776 2.2941 16.46 2.17639ZM15.4479 4.3767H11.8831V3.18835H15.4479V4.3767Z" fill="#888888"/>
<path d="M26.948 3.718H34.293V4.472H31.056V13H30.172V4.472H26.948V3.718ZM33.4784 8.346C33.5044 7.956 33.5867 7.618 33.7254 7.332C33.864 7.046 34.0504 6.812 34.2844 6.63C34.527 6.448 34.8087 6.31367 35.1294 6.227C35.45 6.14033 35.8054 6.097 36.1954 6.097C36.49 6.097 36.7847 6.12733 37.0794 6.188C37.374 6.24 37.6384 6.344 37.8724 6.5C38.1064 6.656 38.297 6.877 38.4444 7.163C38.5917 7.44033 38.6654 7.80433 38.6654 8.255V11.817C38.6654 12.1463 38.8257 12.311 39.1464 12.311C39.2417 12.311 39.3284 12.2937 39.4064 12.259V12.948C39.311 12.9653 39.2244 12.9783 39.1464 12.987C39.077 12.9957 38.986 13 38.8734 13C38.6654 13 38.4964 12.974 38.3664 12.922C38.245 12.8613 38.1497 12.779 38.0804 12.675C38.011 12.571 37.9634 12.4497 37.9374 12.311C37.92 12.1637 37.9114 12.0033 37.9114 11.83H37.8854C37.738 12.0467 37.5864 12.2417 37.4304 12.415C37.283 12.5797 37.114 12.7183 36.9234 12.831C36.7414 12.9437 36.529 13.0303 36.2864 13.091C36.0524 13.1517 35.7707 13.182 35.4414 13.182C35.1294 13.182 34.8347 13.143 34.5574 13.065C34.2887 12.9957 34.0504 12.883 33.8424 12.727C33.643 12.5623 33.4827 12.3587 33.3614 12.116C33.2487 11.8647 33.1924 11.57 33.1924 11.232C33.1924 10.764 33.2964 10.4 33.5044 10.14C33.7124 9.87133 33.9854 9.66767 34.3234 9.529C34.67 9.39033 35.0557 9.295 35.4804 9.243C35.9137 9.18233 36.3514 9.126 36.7934 9.074C36.9667 9.05667 37.1184 9.035 37.2484 9.009C37.3784 8.983 37.4867 8.93967 37.5734 8.879C37.66 8.80967 37.725 8.71867 37.7684 8.606C37.8204 8.49333 37.8464 8.346 37.8464 8.164C37.8464 7.88667 37.7987 7.66133 37.7034 7.488C37.6167 7.306 37.491 7.163 37.3264 7.059C37.1704 6.955 36.984 6.88567 36.7674 6.851C36.5594 6.80767 36.334 6.786 36.0914 6.786C35.5714 6.786 35.1467 6.91167 34.8174 7.163C34.488 7.40567 34.3147 7.8 34.2974 8.346H33.4784ZM37.8464 9.334H37.8204C37.7684 9.42933 37.6687 9.49867 37.5214 9.542C37.374 9.58533 37.244 9.61567 37.1314 9.633C36.7847 9.69367 36.425 9.75 36.0524 9.802C35.6884 9.84533 35.3547 9.91467 35.0514 10.01C34.748 10.1053 34.4967 10.244 34.2974 10.426C34.1067 10.5993 34.0114 10.8507 34.0114 11.18C34.0114 11.388 34.0504 11.5743 34.1284 11.739C34.215 11.895 34.3277 12.0337 34.4664 12.155C34.605 12.2677 34.7654 12.3543 34.9474 12.415C35.1294 12.4757 35.3157 12.506 35.5064 12.506C35.8184 12.506 36.1174 12.4583 36.4034 12.363C36.6894 12.2677 36.9364 12.129 37.1444 11.947C37.361 11.765 37.53 11.544 37.6514 11.284C37.7814 11.024 37.8464 10.7293 37.8464 10.4V9.334ZM44.3146 8.255C44.3059 8.00367 44.2539 7.787 44.1586 7.605C44.0632 7.41433 43.9332 7.25833 43.7686 7.137C43.6126 7.01567 43.4306 6.929 43.2226 6.877C43.0146 6.81633 42.7936 6.786 42.5596 6.786C42.3776 6.786 42.1912 6.80767 42.0006 6.851C41.8186 6.88567 41.6496 6.95067 41.4936 7.046C41.3376 7.13267 41.2119 7.24967 41.1166 7.397C41.0212 7.54433 40.9736 7.72633 40.9736 7.943C40.9736 8.125 41.0169 8.281 41.1036 8.411C41.1989 8.53233 41.3159 8.63633 41.4546 8.723C41.5932 8.80967 41.7449 8.88333 41.9096 8.944C42.0742 8.996 42.2259 9.03933 42.3646 9.074L43.4566 9.321C43.6906 9.35567 43.9202 9.42067 44.1456 9.516C44.3796 9.60267 44.5832 9.71967 44.7566 9.867C44.9386 10.0143 45.0859 10.1963 45.1986 10.413C45.3112 10.6297 45.3676 10.8853 45.3676 11.18C45.3676 11.544 45.2852 11.856 45.1206 12.116C44.9559 12.3673 44.7436 12.5753 44.4836 12.74C44.2322 12.896 43.9462 13.0087 43.6256 13.078C43.3049 13.1473 42.9886 13.182 42.6766 13.182C41.8879 13.182 41.2466 12.9957 40.7526 12.623C40.2672 12.2503 39.9899 11.6523 39.9206 10.829H40.7396C40.7742 11.3837 40.9736 11.804 41.3376 12.09C41.7102 12.3673 42.1696 12.506 42.7156 12.506C42.9149 12.506 43.1186 12.4843 43.3266 12.441C43.5432 12.3977 43.7426 12.324 43.9246 12.22C44.1066 12.116 44.2539 11.986 44.3666 11.83C44.4879 11.6653 44.5486 11.466 44.5486 11.232C44.5486 11.0327 44.5052 10.868 44.4186 10.738C44.3406 10.5993 44.2322 10.4867 44.0936 10.4C43.9549 10.3047 43.7946 10.2267 43.6126 10.166C43.4392 10.1053 43.2616 10.0533 43.0796 10.01L42.0266 9.776C41.7579 9.70667 41.5109 9.62867 41.2856 9.542C41.0602 9.44667 40.8609 9.334 40.6876 9.204C40.5229 9.06533 40.3929 8.90067 40.2976 8.71C40.2022 8.51067 40.1546 8.268 40.1546 7.982C40.1546 7.644 40.2282 7.35367 40.3756 7.111C40.5316 6.86833 40.7309 6.67333 40.9736 6.526C41.2162 6.37867 41.4849 6.27033 41.7796 6.201C42.0829 6.13167 42.3819 6.097 42.6766 6.097C43.0146 6.097 43.3266 6.14033 43.6126 6.227C43.9072 6.31367 44.1629 6.448 44.3796 6.63C44.6049 6.812 44.7826 7.03733 44.9126 7.306C45.0426 7.57467 45.1162 7.891 45.1336 8.255H44.3146ZM46.5564 3.718H47.3754V9.542L51.0934 6.292H52.1854L49.3254 8.775L52.3804 13H51.3534L48.7014 9.347L47.3754 10.452V13H46.5564V3.718ZM57.0734 8.255C57.0647 8.00367 57.0127 7.787 56.9174 7.605C56.822 7.41433 56.692 7.25833 56.5274 7.137C56.3714 7.01567 56.1894 6.929 55.9814 6.877C55.7734 6.81633 55.5524 6.786 55.3184 6.786C55.1364 6.786 54.95 6.80767 54.7594 6.851C54.5774 6.88567 54.4084 6.95067 54.2524 7.046C54.0964 7.13267 53.9707 7.24967 53.8754 7.397C53.78 7.54433 53.7324 7.72633 53.7324 7.943C53.7324 8.125 53.7757 8.281 53.8624 8.411C53.9577 8.53233 54.0747 8.63633 54.2134 8.723C54.352 8.80967 54.5037 8.88333 54.6684 8.944C54.833 8.996 54.9847 9.03933 55.1234 9.074L56.2154 9.321C56.4494 9.35567 56.679 9.42067 56.9044 9.516C57.1384 9.60267 57.342 9.71967 57.5154 9.867C57.6974 10.0143 57.8447 10.1963 57.9574 10.413C58.07 10.6297 58.1264 10.8853 58.1264 11.18C58.1264 11.544 58.044 11.856 57.8794 12.116C57.7147 12.3673 57.5024 12.5753 57.2424 12.74C56.991 12.896 56.705 13.0087 56.3844 13.078C56.0637 13.1473 55.7474 13.182 55.4354 13.182C54.6467 13.182 54.0054 12.9957 53.5114 12.623C53.026 12.2503 52.7487 11.6523 52.6794 10.829H53.4984C53.533 11.3837 53.7324 11.804 54.0964 12.09C54.469 12.3673 54.9284 12.506 55.4744 12.506C55.6737 12.506 55.8774 12.4843 56.0854 12.441C56.302 12.3977 56.5014 12.324 56.6834 12.22C56.8654 12.116 57.0127 11.986 57.1254 11.83C57.2467 11.6653 57.3074 11.466 57.3074 11.232C57.3074 11.0327 57.264 10.868 57.1774 10.738C57.0994 10.5993 56.991 10.4867 56.8524 10.4C56.7137 10.3047 56.5534 10.2267 56.3714 10.166C56.198 10.1053 56.0204 10.0533 55.8384 10.01L54.7854 9.776C54.5167 9.70667 54.2697 9.62867 54.0444 9.542C53.819 9.44667 53.6197 9.334 53.4464 9.204C53.2817 9.06533 53.1517 8.90067 53.0564 8.71C52.961 8.51067 52.9134 8.268 52.9134 7.982C52.9134 7.644 52.987 7.35367 53.1344 7.111C53.2904 6.86833 53.4897 6.67333 53.7324 6.526C53.975 6.37867 54.2437 6.27033 54.5384 6.201C54.8417 6.13167 55.1407 6.097 55.4354 6.097C55.7734 6.097 56.0854 6.14033 56.3714 6.227C56.666 6.31367 56.9217 6.448 57.1384 6.63C57.3637 6.812 57.5414 7.03733 57.6714 7.306C57.8014 7.57467 57.875 7.891 57.8924 8.255H57.0734Z" fill="#888888"/>
</svg>
