<svg width="23" height="19" viewBox="0 0 23 19" fill="none" xmlns="http://www.w3.org/2000/svg">
<path d="M22.1785 13.1428H0.821535C0.598941 13.1428 0.406436 13.2243 0.243861 13.3867C0.0812872 13.5491 0 13.7419 0 13.9644V17.2499C0 17.4721 0.0812872 17.665 0.243861 17.8274C0.406593 17.9898 0.599099 18.0714 0.821535 18.0714H22.1785C22.4009 18.0714 22.5936 17.9898 22.7561 17.8274C22.9187 17.665 23 17.4721 23 17.2499V13.9644C23 13.7419 22.9187 13.5491 22.7561 13.3867C22.5936 13.2243 22.4009 13.1428 22.1785 13.1428ZM21.3572 16.4286H13.1431V14.7857H21.3574V16.4286H21.3572Z" fill="black"/>
<path d="M22.1785 6.5715H0.821535C0.598941 6.5715 0.406436 6.65279 0.243861 6.81536C0.0812872 6.97794 0 7.17044 0 7.39288V10.6784C0 10.9008 0.0812872 11.0935 0.243861 11.2559C0.406593 11.4185 0.599099 11.4999 0.821535 11.4999H22.1785C22.4009 11.4999 22.5936 11.4185 22.7561 11.2559C22.9187 11.0935 23 10.9008 23 10.6784V7.39288C23 7.17044 22.9187 6.97794 22.7561 6.81536C22.5936 6.65279 22.4009 6.5715 22.1785 6.5715ZM21.3569 9.85717H8.21441V8.21442H21.3569V9.85717Z" fill="black"/>
<path d="M22.7561 0.243861C22.5936 0.0814447 22.4009 0 22.1785 0H0.821535C0.598941 0 0.406436 0.0814447 0.243861 0.243861C0.0812872 0.406436 0 0.599099 0 0.821535V4.10705C0 4.32964 0.0812872 4.52215 0.243861 4.68472C0.406593 4.8473 0.599099 4.92858 0.821535 4.92858H22.1785C22.4009 4.92858 22.5936 4.8473 22.7561 4.68472C22.9187 4.52215 23 4.32964 23 4.10705V0.821535C23 0.599099 22.9187 0.406593 22.7561 0.243861ZM21.3569 3.28583H16.4285V1.64291H21.3569V3.28583Z" fill="black"/>
</svg>
