<svg width="89" height="89" viewBox="0 0 89 89" fill="none" xmlns="http://www.w3.org/2000/svg">
<g filter="url(#filter0_d_498_3)">
<circle cx="44.5" cy="40.5" r="29" fill="white" stroke="#D5D5D5"/>
<path d="M53.9736 31.0263C53.7432 30.796 53.4309 30.6667 53.1052 30.6667C52.7795 30.6667 52.4672 30.796 52.2368 31.0263L44.5075 38.7556L36.7782 31.0263C36.5466 30.8026 36.2363 30.6788 35.9143 30.6816C35.5922 30.6844 35.2842 30.8135 35.0564 31.0413C34.8287 31.269 34.6995 31.577 34.6967 31.8991C34.6939 32.2211 34.8177 32.5314 35.0415 32.763L42.7708 40.4923L35.0415 48.2217C34.9242 48.335 34.8306 48.4705 34.7662 48.6203C34.7019 48.7702 34.668 48.9314 34.6666 49.0944C34.6651 49.2575 34.6962 49.4193 34.758 49.5702C34.8197 49.7211 34.9109 49.8583 35.0262 49.9736C35.1416 50.0889 35.2787 50.1801 35.4297 50.2419C35.5806 50.3036 35.7423 50.3347 35.9054 50.3333C36.0685 50.3319 36.2297 50.298 36.3795 50.2336C36.5294 50.1693 36.6649 50.0757 36.7782 49.9584L44.5075 42.2291L52.2368 49.9584C52.4685 50.1821 52.7787 50.3059 53.1008 50.3031C53.4228 50.3003 53.7309 50.1711 53.9586 49.9434C54.1863 49.7157 54.3155 49.4076 54.3183 49.0856C54.3211 48.7636 54.1973 48.4533 53.9736 48.2217L46.2442 40.4923L53.9736 32.763C54.2038 32.5327 54.3332 32.2203 54.3332 31.8947C54.3332 31.569 54.2038 31.2566 53.9736 31.0263Z" fill="black"/>
</g>
<defs>
<filter id="filter0_d_498_3" x="0.2" y="0.2" width="88.6" height="88.6" filterUnits="userSpaceOnUse" color-interpolation-filters="sRGB">
<feFlood flood-opacity="0" result="BackgroundImageFix"/>
<feColorMatrix in="SourceAlpha" type="matrix" values="0 0 0 0 0 0 0 0 0 0 0 0 0 0 0 0 0 0 127 0" result="hardAlpha"/>
<feOffset dy="4"/>
<feGaussianBlur stdDeviation="7.4"/>
<feComposite in2="hardAlpha" operator="out"/>
<feColorMatrix type="matrix" values="0 0 0 0 0 0 0 0 0 0 0 0 0 0 0 0 0 0 0.15 0"/>
<feBlend mode="normal" in2="BackgroundImageFix" result="effect1_dropShadow_498_3"/>
<feBlend mode="normal" in="SourceGraphic" in2="effect1_dropShadow_498_3" result="shape"/>
</filter>
</defs>
</svg>
