<svg width="1088" height="394" viewBox="0 0 1088 394" fill="none" xmlns="http://www.w3.org/2000/svg">
<g filter="url(#filter0_d_538_18)">
<path d="M959.85 374H931.5H36C24.9543 374 16 365.046 16 354V32C16 20.9543 24.9543 12 36 12H1052C1063.05 12 1072 20.9543 1072 32V245.771V262.466C1072 273.434 1063.09 282.206 1052.17 283.325C988.732 289.837 981.035 324.819 979.589 354.866C979.075 365.562 970.558 374 959.85 374Z" fill="#5DB3E5"/>
<path d="M959.85 374H931.5H36C24.9543 374 16 365.046 16 354V32C16 20.9543 24.9543 12 36 12H1052C1063.05 12 1072 20.9543 1072 32V245.771V262.466C1072 273.434 1063.09 282.206 1052.17 283.325C988.732 289.837 981.035 324.819 979.589 354.866C979.075 365.562 970.558 374 959.85 374Z" stroke="#168ACE"/>
</g>
<circle cx="1040.5" cy="343.5" r="31" fill="#5DB3E5" stroke="#168ACE"/>
<defs>
<filter id="filter0_d_538_18" x="0.7" y="0.7" width="1086.6" height="392.6" filterUnits="userSpaceOnUse" color-interpolation-filters="sRGB">
<feFlood flood-opacity="0" result="BackgroundImageFix"/>
<feColorMatrix in="SourceAlpha" type="matrix" values="0 0 0 0 0 0 0 0 0 0 0 0 0 0 0 0 0 0 127 0" result="hardAlpha"/>
<feOffset dy="4"/>
<feGaussianBlur stdDeviation="7.4"/>
<feComposite in2="hardAlpha" operator="out"/>
<feColorMatrix type="matrix" values="0 0 0 0 0 0 0 0 0 0 0 0 0 0 0 0 0 0 0.15 0"/>
<feBlend mode="normal" in2="BackgroundImageFix" result="effect1_dropShadow_538_18"/>
<feBlend mode="normal" in="SourceGraphic" in2="effect1_dropShadow_538_18" result="shape"/>
</filter>
</defs>
</svg>
