<svg width="288" height="282" viewBox="0 0 288 282" fill="none" xmlns="http://www.w3.org/2000/svg">
<circle cx="247.5" cy="241.5" r="40.5" fill="white"/>
<path d="M256.5 234.3C255.9 233.7 255 233.8 254.4 234.4C253.8 235 253.9 235.9 254.5 236.5L262.1 243.7H236.8C232.5 243.7 229 240.2 229 235.9C229 231.6 232.5 228.1 236.8 228.1C237.6 228.1 238.3 227.4 238.3 226.6C238.3 225.8 237.6 225 236.8 225C230.8 225 226 229.9 226 235.8C226 241.7 230.9 246.6 236.8 246.6H262.1L254.4 254.3C253.8 254.9 253.8 255.8 254.4 256.4C254.7 256.7 255.1 256.8 255.5 256.8C255.9 256.8 256.3 256.7 256.6 256.4L268 245.1L256.5 234.3Z" fill="black"/>
<path d="M256.387 194.463C270.477 165.576 273.756 132.598 265.632 101.502C257.508 70.4055 238.517 43.2463 212.098 24.9424C185.679 6.63853 153.579 -1.59987 121.611 1.71906C89.6427 5.03798 59.9197 19.6948 37.8243 43.0354C15.729 66.376 2.72213 96.8571 1.15914 128.959C-0.403843 161.061 9.58036 192.662 29.3038 218.039C49.0272 243.415 77.1857 260.89 108.68 267.299C140.175 273.708 172.924 268.627 200.996 252.976" stroke="white" stroke-width="1.5"/>
<path d="M127.904 120.16C128.331 120.245 128.715 120.288 129.056 120.288C129.483 120.288 129.909 120.288 130.336 120.288H132.64C134.944 120.288 137.12 119.989 139.168 119.392C141.301 118.709 143.136 117.771 144.672 116.576C146.293 115.296 147.573 113.717 148.512 111.84C149.451 109.963 149.92 107.829 149.92 105.44C149.92 100.576 148.384 96.9493 145.312 94.56C142.24 92.0853 138.4 90.848 133.792 90.848C130.891 90.848 128.331 91.4027 126.112 92.512C123.979 93.536 122.187 94.944 120.736 96.736C119.371 98.528 118.347 100.619 117.664 103.008C116.981 105.397 116.64 107.915 116.64 110.56H105.76C105.931 106.208 106.613 102.24 107.808 98.656C109.088 95.072 110.88 92 113.184 89.44C115.488 86.88 118.347 84.8747 121.76 83.424C125.259 81.9733 129.269 81.248 133.792 81.248C137.717 81.248 141.344 81.76 144.672 82.784C148.085 83.7227 151.029 85.1733 153.504 87.136C155.979 89.0987 157.899 91.616 159.264 94.688C160.715 97.76 161.44 101.387 161.44 105.568C161.44 109.664 160.245 113.291 157.856 116.448C155.467 119.605 152.48 121.995 148.896 123.616V123.872C154.443 125.067 158.539 127.669 161.184 131.68C163.915 135.691 165.28 140.427 165.28 145.888C165.28 150.411 164.427 154.421 162.72 157.92C161.099 161.333 158.88 164.192 156.064 166.496C153.248 168.8 149.92 170.549 146.08 171.744C142.325 172.853 138.315 173.408 134.048 173.408C129.44 173.408 125.259 172.768 121.504 171.488C117.749 170.208 114.549 168.331 111.904 165.856C109.259 163.296 107.211 160.181 105.76 156.512C104.395 152.843 103.755 148.661 103.84 143.968H114.72C114.891 149.856 116.597 154.677 119.84 158.432C123.083 162.101 127.819 163.936 134.048 163.936C136.693 163.936 139.211 163.552 141.6 162.784C143.989 161.931 146.08 160.779 147.872 159.328C149.664 157.792 151.072 155.957 152.096 153.824C153.205 151.605 153.76 149.131 153.76 146.4C153.76 143.584 153.248 141.109 152.224 138.976C151.2 136.757 149.835 134.923 148.128 133.472C146.421 131.936 144.373 130.827 141.984 130.144C139.68 129.376 137.163 128.992 134.432 128.992C132.128 128.992 129.952 129.12 127.904 129.376V120.16Z" fill="black"/>
</svg>
