<svg width="288" height="282" viewBox="0 0 288 282" fill="none" xmlns="http://www.w3.org/2000/svg">
<circle cx="247.5" cy="241.5" r="40.5" fill="white"/>
<path d="M256.5 234.3C255.9 233.7 255 233.8 254.4 234.4C253.8 235 253.9 235.9 254.5 236.5L262.1 243.7H236.8C232.5 243.7 229 240.2 229 235.9C229 231.6 232.5 228.1 236.8 228.1C237.6 228.1 238.3 227.4 238.3 226.6C238.3 225.8 237.6 225 236.8 225C230.8 225 226 229.9 226 235.8C226 241.7 230.9 246.6 236.8 246.6H262.1L254.4 254.3C253.8 254.9 253.8 255.8 254.4 256.4C254.7 256.7 255.1 256.8 255.5 256.8C255.9 256.8 256.3 256.7 256.6 256.4L268 245.1L256.5 234.3Z" fill="black"/>
<path d="M256.387 194.463C270.477 165.576 273.756 132.598 265.632 101.502C257.508 70.4055 238.517 43.2463 212.098 24.9424C185.679 6.63853 153.579 -1.59987 121.611 1.71906C89.6427 5.03798 59.9197 19.6948 37.8243 43.0354C15.729 66.376 2.72213 96.8571 1.15914 128.959C-0.403843 161.061 9.58036 192.662 29.3038 218.039C49.0272 243.415 77.1857 260.89 108.68 267.299C140.175 273.708 172.924 268.627 200.996 252.976" stroke="white" stroke-width="1.5"/>
<path d="M142.568 174H131.688V108.976H108.136V100.272C111.208 100.272 114.195 100.059 117.096 99.632C119.997 99.12 122.6 98.224 124.904 96.944C127.293 95.664 129.299 93.9147 130.92 91.696C132.541 89.4773 133.651 86.6613 134.248 83.248H142.568V174Z" fill="black"/>
</svg>
