<svg width="288" height="282" viewBox="0 0 288 282" fill="none" xmlns="http://www.w3.org/2000/svg">
<circle cx="247.5" cy="241.5" r="40.5" fill="white"/>
<path d="M256.5 234.3C255.9 233.7 255 233.8 254.4 234.4C253.8 235 253.9 235.9 254.5 236.5L262.1 243.7H236.8C232.5 243.7 229 240.2 229 235.9C229 231.6 232.5 228.1 236.8 228.1C237.6 228.1 238.3 227.4 238.3 226.6C238.3 225.8 237.6 225 236.8 225C230.8 225 226 229.9 226 235.8C226 241.7 230.9 246.6 236.8 246.6H262.1L254.4 254.3C253.8 254.9 253.8 255.8 254.4 256.4C254.7 256.7 255.1 256.8 255.5 256.8C255.9 256.8 256.3 256.7 256.6 256.4L268 245.1L256.5 234.3Z" fill="black"/>
<path d="M256.387 194.463C270.477 165.576 273.756 132.598 265.632 101.502C257.508 70.4055 238.517 43.2463 212.098 24.9424C185.679 6.63853 153.579 -1.59987 121.611 1.71906C89.6427 5.03798 59.9197 19.6948 37.8243 43.0354C15.729 66.376 2.72213 96.8571 1.15914 128.959C-0.403843 161.061 9.58036 192.662 29.3038 218.039C49.0272 243.415 77.1857 260.89 108.68 267.299C140.175 273.708 172.924 268.627 200.996 252.976" stroke="white" stroke-width="1.5"/>
<path d="M105.632 110.376C105.376 105.768 105.845 101.501 107.04 97.576C108.235 93.6507 110.069 90.28 112.544 87.464C115.104 84.5627 118.261 82.3013 122.016 80.68C125.771 79.0587 130.037 78.248 134.816 78.248C138.741 78.248 142.411 78.8453 145.824 80.04C149.323 81.1493 152.352 82.8133 154.912 85.032C157.472 87.1653 159.477 89.8533 160.928 93.096C162.464 96.3387 163.232 100.093 163.232 104.36C163.232 108.371 162.592 111.912 161.312 114.984C160.117 118.056 158.496 120.829 156.448 123.304C154.4 125.693 152.053 127.869 149.408 129.832C146.763 131.795 144.032 133.672 141.216 135.464C138.4 137.171 135.584 138.877 132.768 140.584C129.952 142.205 127.349 143.955 124.96 145.832C122.656 147.709 120.651 149.757 118.944 151.976C117.323 154.109 116.256 156.584 115.744 159.4H162.336V169H103.072C103.499 163.624 104.437 159.059 105.888 155.304C107.424 151.464 109.344 148.136 111.648 145.32C113.952 142.504 116.555 140.029 119.456 137.896C122.357 135.763 125.387 133.757 128.544 131.88C132.384 129.491 135.755 127.315 138.656 125.352C141.557 123.304 143.947 121.256 145.824 119.208C147.787 117.16 149.237 114.941 150.176 112.552C151.2 110.163 151.712 107.389 151.712 104.232C151.712 101.757 151.243 99.5387 150.304 97.576C149.365 95.528 148.085 93.7787 146.464 92.328C144.928 90.8773 143.093 89.768 140.96 89C138.827 88.232 136.565 87.848 134.176 87.848C131.019 87.848 128.288 88.5307 125.984 89.896C123.765 91.176 121.931 92.8827 120.48 95.016C119.029 97.1493 117.963 99.5813 117.28 102.312C116.683 104.957 116.427 107.645 116.512 110.376H105.632Z" fill="black"/>
</svg>
