<svg width="18" height="20" viewBox="0 0 18 20" fill="none" xmlns="http://www.w3.org/2000/svg">
<path d="M9.26921 5.17378C10.6236 5.02511 11.601 3.80666 11.4523 2.4523C11.3036 1.09794 10.0852 0.12053 8.73082 0.2692C7.37647 0.41787 6.39906 1.63632 6.54773 2.99068C6.6964 4.34505 7.91485 5.32245 9.26921 5.17378Z" fill="black"/>
<path d="M17.3511 17.3759C17.3502 17.3515 17.3485 17.3267 17.3466 17.3016C17.3441 17.2711 17.3412 17.2403 17.3369 17.2097C17.3331 17.1814 17.3287 17.1553 17.3241 17.1293C17.3189 17.1016 17.3134 17.0742 17.3069 17.047C17.3002 17.0186 17.2928 16.9906 17.2848 16.963C17.2779 16.9396 17.2702 16.9145 17.2619 16.8902C17.2517 16.8603 17.2411 16.8317 17.2298 16.8035C17.2214 16.7825 17.2119 16.7603 17.2019 16.7383C17.1887 16.709 17.1754 16.6813 17.1612 16.6539C17.1498 16.6319 17.1387 16.6116 17.127 16.5913C17.1111 16.5636 17.0956 16.5381 17.0795 16.513C17.0657 16.4918 17.0515 16.4706 17.0367 16.4498C17.0282 16.438 17.0192 16.4264 17.0104 16.4147C16.8619 16.3029 16.1324 15.7909 14.9531 15.5628L11.8275 14.9585H6.17253L3.04693 15.5628L3.04694 15.5628C1.85639 15.7931 1.13704 16.3022 0.990294 16.4139C0.981256 16.4259 0.972105 16.4376 0.963254 16.45C0.948573 16.4706 0.934373 16.4918 0.920406 16.5133C0.904412 16.5381 0.888904 16.5636 0.87411 16.5896C0.861336 16.6116 0.850232 16.6319 0.8395 16.6529C0.824703 16.6813 0.811334 16.709 0.798676 16.7372C0.788186 16.7603 0.778635 16.7825 0.76957 16.8052C0.758936 16.8317 0.748317 16.8603 0.738538 16.889C0.72983 16.9145 0.72219 16.9396 0.714904 16.9644C0.707264 16.9904 0.699865 17.0186 0.693309 17.0465C0.686625 17.0744 0.681137 17.1019 0.676119 17.1295C0.671233 17.1556 0.666926 17.1811 0.663461 17.2074C0.658816 17.2405 0.65595 17.2713 0.653441 17.3021C0.65153 17.3267 0.649864 17.3515 0.648908 17.3771C0.647712 17.4086 0.647953 17.4415 0.648551 17.4747C0.648667 17.4802 0.648438 17.5093 0.64831 17.5148L0.651658 17.5534C0.653569 17.5807 0.656661 17.6105 0.66037 17.6408C0.664059 17.6726 0.668122 17.7029 0.673253 17.7327C0.674325 17.7389 0.677789 17.7635 0.6785 17.7699L0.687806 17.805C0.69522 17.8387 0.702844 17.8711 0.711797 17.9031C0.718609 17.9275 0.725767 17.9499 0.733162 17.9726C0.743183 18.0029 0.753689 18.0332 0.765263 18.0626C0.775412 18.0886 0.784962 18.111 0.794983 18.1337C0.807272 18.1614 0.819929 18.1881 0.83317 18.2144C0.845703 18.2389 0.858357 18.2623 0.871484 18.285C0.886041 18.3108 0.89988 18.3337 0.914204 18.3564C0.930198 18.3817 0.946192 18.4051 0.962768 18.4285C0.977092 18.4487 0.992488 18.4695 1.00859 18.49C1.0265 18.5127 1.045 18.5354 1.06422 18.5576C1.08188 18.5781 1.09978 18.5977 1.11815 18.6173C1.13701 18.6371 1.15671 18.6566 1.17688 18.676C1.19632 18.6946 1.21698 18.7132 1.2381 18.7314C1.25743 18.7481 1.27711 18.7648 1.29728 18.7808C1.32116 18.7994 1.34526 18.8175 1.36997 18.8349C1.38978 18.849 1.40899 18.8621 1.42856 18.8748C1.45589 18.8922 1.48286 18.9087 1.51043 18.9247C1.53084 18.9364 1.55065 18.9469 1.57069 18.9574C1.59814 18.9717 1.62715 18.9858 1.6565 18.9989C1.67775 19.0084 1.69839 19.0173 1.71903 19.0256C1.75102 19.0385 1.78014 19.0493 1.80962 19.0593C1.83254 19.0669 1.85711 19.0746 1.88181 19.082C1.9082 19.0896 1.93708 19.097 1.96631 19.1042C1.99484 19.1108 2.02265 19.1161 2.05057 19.1216C2.07156 19.1254 2.0983 19.1299 2.12552 19.1335C2.15773 19.1378 2.18901 19.1409 2.22026 19.1435C2.24438 19.1455 2.26968 19.1471 2.29534 19.1481C2.326 19.149 2.36002 19.149 2.39415 19.1483C2.39916 19.1483 2.42734 19.1486 2.43209 19.1486L8.95789 18.3934C8.98582 18.39 9.01423 18.39 9.04215 18.3934L15.5882 19.1507C15.588 19.1502 15.5966 19.15 15.6086 19.15C15.6223 19.15 15.6439 19.1505 15.6598 19.1514C15.6993 19.151 15.7535 19.1476 15.807 19.1426C15.8106 19.1421 15.8391 19.1381 15.8426 19.1376C15.8832 19.133 15.9221 19.1278 15.9607 19.1204L15.9964 19.1125C16.0485 19.1006 16.0798 19.0932 16.1106 19.0846C16.1322 19.0784 16.1532 19.0715 16.1743 19.0645C16.2024 19.0552 16.2293 19.0459 16.2557 19.0359C16.2764 19.0278 16.2989 19.0187 16.3212 19.0089C16.3478 18.9972 16.3729 18.9855 16.3976 18.9734C16.4175 18.9636 16.4393 18.9526 16.4606 18.9411C16.4826 18.929 16.5064 18.9149 16.5302 18.9001C16.5531 18.8865 16.5712 18.8757 16.5889 18.8638C16.6147 18.8466 16.6377 18.8294 16.6609 18.8123L16.7111 18.775C16.7419 18.7504 16.7703 18.7251 16.7984 18.6994C16.801 18.697 16.8177 18.6819 16.8203 18.6798C16.9015 18.6027 16.9703 18.5237 17.0308 18.4399L17.0456 18.4175C17.0687 18.3845 17.0923 18.349 17.1142 18.312L17.1263 18.29C17.1271 18.2886 17.1385 18.2676 17.1393 18.2659C17.1552 18.237 17.1713 18.2082 17.1856 18.1778L17.2045 18.1354C17.2047 18.1346 17.2138 18.1134 17.2141 18.1129C17.2257 18.0855 17.2363 18.0609 17.2458 18.0354C17.2545 18.012 17.2622 17.9874 17.2701 17.9628C17.2788 17.9356 17.2866 17.9105 17.2936 17.885C17.3003 17.8602 17.3063 17.8334 17.3122 17.8062C17.3133 17.8014 17.3201 17.7737 17.3213 17.769C17.3221 17.7625 17.326 17.7368 17.3272 17.7303C17.3322 17.7002 17.3366 17.6692 17.3403 17.6375C17.3436 17.6088 17.3465 17.5807 17.3484 17.5527C17.3488 17.5465 17.3513 17.5212 17.352 17.515L17.3515 17.4749C17.3521 17.4415 17.3523 17.4086 17.3511 17.3759Z" fill="black"/>
<path d="M17.3654 14.2026C17.3188 14.1945 17.2741 14.1773 17.234 14.1523C16.7513 13.8496 15.5751 12.7316 14.9444 12.0631C14.9162 12.0332 14.8933 11.9991 14.8766 11.9616C14.7389 11.6554 14.486 10.8508 14.194 9.90921C13.1631 6.5858 12.8267 5.62775 11.9438 5.62775H9.07864C9.06396 5.62775 9.04952 5.62917 9.03508 5.63012C9.01706 5.63179 8.99129 5.63203 8.97326 5.63084C8.95047 5.62917 8.93603 5.62775 8.92135 5.62775H6.05622C5.17334 5.62775 4.83691 6.5858 3.80605 9.90921C3.51402 10.8508 3.26114 11.6554 3.12342 11.9616C3.10671 11.9991 3.08379 12.0332 3.05563 12.0631C2.42491 12.7316 1.24869 13.8496 0.765952 14.1523C0.725854 14.1773 0.681224 14.1945 0.634559 14.2026C0.325231 14.2568 0.0828549 14.4902 0.0171 14.7974C-0.0714613 15.2108 0.192766 15.6194 0.606164 15.708C0.633075 15.7138 0.663436 15.7194 0.696177 15.7241C0.954361 15.5501 1.45192 15.2586 2.16107 15.0334C2.16291 15.0319 2.16384 15.0297 2.1657 15.0282C2.74021 14.5742 3.44385 13.9 4.25691 13.0242C4.28877 12.9899 4.59274 12.6061 5.49937 9.70944C5.54973 9.54857 5.70332 9.44496 5.87183 9.45309C6.04023 9.46336 6.17973 9.58722 6.20992 9.75335C6.38954 10.7384 6.41877 12.1643 6.44026 13.2054C6.44821 13.5929 6.45605 13.9635 6.47046 14.2253H11.5295C11.5439 13.9635 11.5518 13.5929 11.5597 13.2054C11.5812 12.1643 11.6105 10.7384 11.7901 9.75335C11.8203 9.58722 11.9598 9.46336 12.1282 9.45309C12.2968 9.44426 12.4503 9.54857 12.5006 9.70944C13.4076 12.6073 13.7115 12.9901 13.7432 13.0242C14.5553 13.899 15.2588 14.5733 15.8343 15.0282C15.8362 15.0297 15.8371 15.0319 15.8389 15.0334C16.5481 15.2586 17.0456 15.5501 17.3038 15.7241C17.3365 15.7195 17.3667 15.7139 17.3932 15.7082C17.8072 15.6194 18.0715 15.2108 17.9829 14.7974C17.9172 14.4902 17.6748 14.2568 17.3654 14.2026Z" fill="black"/>
</svg>
