<svg width="1093" height="878" viewBox="0 0 1093 878" fill="none" xmlns="http://www.w3.org/2000/svg">
<g filter="url(#filter0_d_498_9)">
<path d="M127.623 17.0912L156.03 16.9386L1054.99 12.1075C1066.03 12.0481 1075.03 20.9542 1075.09 31.9997L1077.27 437.994L1077.27 838C1077.27 849.046 1068.32 858 1057.27 858L37.2894 858C26.2437 858 17.2894 849.046 17.2895 838L17.2894 443.69L15.811 168.594L15.6865 145.412C15.6276 134.458 24.48 125.667 35.3496 124.309C101.073 116.096 107.029 72.527 107.981 36.4557C108.265 25.702 116.866 17.149 127.623 17.0912Z" fill="white"/>
<path d="M127.623 17.0912L156.03 16.9386L1054.99 12.1075C1066.03 12.0481 1075.03 20.9542 1075.09 31.9997L1077.27 437.994L1077.27 838C1077.27 849.046 1068.32 858 1057.27 858L37.2894 858C26.2437 858 17.2894 849.046 17.2895 838L17.2894 443.69L15.811 168.594L15.6865 145.412C15.6276 134.458 24.48 125.667 35.3496 124.309C101.073 116.096 107.029 72.527 107.981 36.4557C108.265 25.702 116.866 17.149 127.623 17.0912Z" stroke="#D5D5D5"/>
</g>
<defs>
<filter id="filter0_d_498_9" x="0.386035" y="0.807178" width="1092.19" height="876.493" filterUnits="userSpaceOnUse" color-interpolation-filters="sRGB">
<feFlood flood-opacity="0" result="BackgroundImageFix"/>
<feColorMatrix in="SourceAlpha" type="matrix" values="0 0 0 0 0 0 0 0 0 0 0 0 0 0 0 0 0 0 127 0" result="hardAlpha"/>
<feOffset dy="4"/>
<feGaussianBlur stdDeviation="7.4"/>
<feComposite in2="hardAlpha" operator="out"/>
<feColorMatrix type="matrix" values="0 0 0 0 0 0 0 0 0 0 0 0 0 0 0 0 0 0 0.15 0"/>
<feBlend mode="normal" in2="BackgroundImageFix" result="effect1_dropShadow_498_9"/>
<feBlend mode="normal" in="SourceGraphic" in2="effect1_dropShadow_498_9" result="shape"/>
</filter>
</defs>
</svg>
